<?xml version="1.0" encoding="UTF-8" standalone="no"?>
<svg
   width="375"
   height="100"
   viewBox="0 0 527 93"
   fill="#99eedf"
   version="1.1"
   id="svg27"
   sodipodi:docname="logo.svg"
   inkscape:version="1.3.2 (091e20e, 2023-11-25)"
   inkscape:export-filename="blog-logo.png"
   inkscape:export-xdpi="261.888"
   inkscape:export-ydpi="261.888"
   xmlns:inkscape="http://www.inkscape.org/namespaces/inkscape"
   xmlns:sodipodi="http://sodipodi.sourceforge.net/DTD/sodipodi-0.dtd"
   xmlns="http://www.w3.org/2000/svg"
   xmlns:svg="http://www.w3.org/2000/svg">
  <defs
     id="defs31">
    <rect
       x="336.76721"
       y="192.04081"
       width="89.062404"
       height="26.440401"
       id="rect1" />
  </defs>
  <sodipodi:namedview
     id="namedview29"
     page="#ffffff"
     bordercolor="#000000"
     borderopacity="0.25"
     inkscape:showpageshadow="2"
     inkscape:pageopacity="0.0"
     inkscape:pagecheckerboard="0"
     inkscape:deskcolor="#d1d1d1"
     showgrid="false"
     inkscape:zoom="0.71859727"
     inkscape:cx="96.716204"
     inkscape:cy="8.3496004"
     inkscape:window-width="1488"
     inkscape:window-height="1027"
     inkscape:window-x="55"
     inkscape:window-y="25"
     inkscape:window-maximized="0"
     inkscape:current-layer="svg27"
     pagecolor="#ffffff" />
  <path
     d="m 45.266746,85.393664 c -8.5,0 -16.7,-3.7 -22.3,-10.6 -4.4,-5.4 -8.3,-10 -11.6,-13.8 -3.6999992,-4.2 -5.2999992,-9.7 -4.3999992,-15.2 0.9,-5.5 4.0999992,-10.3 8.9999992,-13.1 v 0 l 39,-22.6999999 c 5.3,-3.1 11.7,-3.3 17.2,-0.8 5.5,2.5999999 9.4,7.6999999 10.4,13.6999999 l 5,30.4 c 1.3,7.9 -2.6,15.7 -9.7,19.4 -5.1,2.7 -12,6 -20.4,9.9 -3.9,1.9 -8.1,2.8 -12.2,2.8 z m -27.4,-49.3 c -3.8,2.2 -6.3,5.9 -7,10.2 -0.7,4.3 0.6,8.7 3.5,11.9 3.4,3.8 7.3,8.5 11.7,13.9 7.2,8.8 19.4,11.6 29.7,6.8 8.3,-3.9 15.1,-7.2 20.2,-9.9 5.6,-2.9 8.6,-9 7.6,-15.2 l -5,-30.4 c -0.8,-4.8 -3.8,-8.7 -8.1,-10.7 -4.4,-2.1 -9.3,-1.8 -13.5,0.6 z"
     id="path25"
     style="fill:#ff7f2a;stroke-width:1.24;stroke-dasharray:none" />
  <text
     xml:space="preserve"
     style="font-style:normal;font-variant:normal;font-weight:normal;font-stretch:normal;font-size:59.52px;font-family:Arial;-inkscape-font-specification:'Arial, Normal';font-variant-ligatures:normal;font-variant-caps:normal;font-variant-numeric:normal;font-variant-east-asian:normal;fill:#2d7588;fill-opacity:1;stroke-width:0.31"
     x="91.331802"
     y="63.781403"
     id="text245"
     inkscape:label="text245"><tspan
       sodipodi:role="line"
       id="tspan243"
       style="font-style:normal;font-variant:normal;font-weight:bold;font-stretch:normal;font-size:59.52px;font-family:Comfortaa;-inkscape-font-specification:'Comfortaa Bold';font-variant-ligatures:normal;font-variant-caps:normal;font-variant-numeric:normal;font-variant-east-asian:normal;fill:#2d7588;fill-opacity:1;stroke-width:0.31"
       x="91.331802"
       y="63.781403">propertymap <tspan
   style="font-size:37.4756px"
   id="tspan2">propaganda</tspan> </tspan></text>
  <text
     xml:space="preserve"
     transform="matrix(1.4053333,0,0,1.4053333,0,-23.766667)"
     id="text1"
     style="font-style:italic;font-weight:bold;font-size:21.3333px;font-family:'Titillium Web';-inkscape-font-specification:'Titillium Web, Bold Italic';white-space:pre;shape-inside:url(#rect1);display:inline;fill:#b00000;fill-rule:evenodd;stroke:#872b2b;stroke-width:11.312;stroke-opacity:0" />
</svg>
