<?xml version="1.0" standalone="no"?>
<!DOCTYPE svg PUBLIC "-//W3C//DTD SVG 20010904//EN"
 "http://www.w3.org/TR/2001/REC-SVG-20010904/DTD/svg10.dtd">
<svg version="1.0" xmlns="http://www.w3.org/2000/svg"
 width="106.000000pt" height="106.000000pt" viewBox="0 0 106.000000 106.000000"
 preserveAspectRatio="xMidYMid meet">
<metadata>
Created by potrace 1.14, written by Peter Selinger 2001-2017
</metadata>
<g transform="translate(0.000000,106.000000) scale(0.100000,-0.100000)"
fill="#000000" stroke="none">
<path d="M663 1021 c-99 -46 -565 -325 -597 -357 -64 -64 -84 -191 -43 -270
19 -35 188 -240 225 -272 109 -95 253 -126 377 -81 109 40 331 157 367 194 39
39 68 108 68 159 0 27 -58 393 -75 471 -27 127 -203 212 -322 156z m144 -42
c75 -20 124 -86 137 -181 4 -25 15 -95 26 -155 38 -217 41 -244 27 -293 -18
-68 -50 -94 -210 -173 -161 -79 -209 -98 -260 -101 -52 -4 -140 18 -190 47
-63 37 -263 275 -278 331 -17 64 4 138 53 183 19 18 385 237 540 323 54 30 97
35 155 19z"/>
</g>
</svg>
